<?xml version="1.0" encoding="utf-8"?>
<!-- Generator: Adobe Illustrator 19.0.0, SVG Export Plug-In . SVG Version: 6.00 Build 0)  -->
<svg version="1.1" id="Layer_1" xmlns="http://www.w3.org/2000/svg" xmlns:xlink="http://www.w3.org/1999/xlink" x="0px" y="0px"
	 viewBox="0 0 100.9 130.4" style="enable-background:new 0 0 100.9 130.4;" xml:space="preserve">
<style type="text/css">
	.st0{fill:#3F59A6;}
</style>
<g>
	<path class="st0" d="M37.4,129.1c0.7,0.9,1.8,1.3,3,1.3h48.2c1.6,0,3-0.8,3.6-2.3c0.1-0.2,1-2.6,1.4-3.5c1-2.8,2-5.8,2.9-9
		c1.5-5.1,2.7-10.1,3.4-14.8c1.6-10.2,1.2-18.4-2.2-24c-3.5-5.8-9.9-10-18.1-13c-4.3-1.5-9-2.7-13.6-3.4c-1.6-0.3-2.8-0.4-2.8-0.4
		v-35c0-6.3-4.8-11.7-11.2-11.7h-1.9c-6.4,0-11.6,5.3-11.6,11.6l0,60.7L25.7,74.6C17.5,67.4,6,69.3,0.6,78.8
		c-0.8,1.5-0.7,3.1,0.3,4.3L37.4,129.1z M9.9,79.6c3.1-2.4,7.3-2.2,10.8,0.8l19.2,16.7c2.5,2.2,6.4,0.4,6.4-2.9V25.2
		c0-2.1,1.8-3.7,3.9-3.7H52c2.1,0,4.2,1.6,4.2,3.7v38.4c0,2,1.4,3.7,3.4,3.8c0.2,0,0.6,0.1,1.4,0.1c1.2,0.1,2.5,0.3,4,0.6
		c4.1,0.7,8.2,1.7,12.1,3.1c6.8,2.4,11.7,5.7,14.2,9.7c2.2,3.6,2.6,10.2,1.2,18.8c-0.7,4.4-1.8,9.1-3.2,13.9c-0.9,3-1.8,6.1-2.8,8.8
		c-0.3,0.9-0.3,1.1-0.3,1.1H42.4L8.7,80.9C8.7,80.9,9.2,80.1,9.9,79.6z"/>
	<path class="st0" d="M76.6,20.4C74.1,20.4,63.6,0,51.1,0c-14.4,0-26,11.7-26,26c0,9.6,5.3,18.3,13.6,22.8c1.9,1,4.2,0.4,5.2-1.5
		c1-1.9,0.3-4.2-1.5-5.2c-5.9-3.2-9.6-9.3-9.6-16C32.8,16,41,7.9,51.1,7.9s18.3,8.2,18.3,18.2c0,6.7-3.6,12.7-9.4,15.9
		c-1.9,1-2.5,3.4-1.5,5.2c1,1.9,3.4,2.5,5.2,1.4c7.5-4.2,12.4-11.3,13.2-20.3h11.2v4c0,1,0.7,1.4,1.6,0.8l10.4-7.4
		c0.9-0.6,0.9-1.6,0-2.2l-10.4-7.4c-0.9-0.6-1.6-0.3-1.6,0.8v3.4H76.6L76.6,20.4z"/>
</g>
</svg>
