<?xml version="1.0" encoding="utf-8"?>
<!-- Generator: Adobe Illustrator 19.0.0, SVG Export Plug-In . SVG Version: 6.00 Build 0)  -->
<svg version="1.1" id="Layer_1" xmlns="http://www.w3.org/2000/svg" xmlns:xlink="http://www.w3.org/1999/xlink" x="0px" y="0px"
	 viewBox="0 0 85.1 128" style="enable-background:new 0 0 85.1 128;" xml:space="preserve">
<style type="text/css">
	.st0{fill:#3F59A6;}
</style>
<path class="st0" d="M84.4,82.9c-0.8-0.7-2.1-0.6-2.8,0.2L67.9,99.2l-8.7-6.9c-0.9-0.7-2.1-0.5-2.8,0.3c-0.7,0.9-0.5,2.1,0.3,2.8
	l10.2,8.1c0.4,0.3,0.8,0.4,1.2,0.4c0.6,0,1.1-0.2,1.5-0.7l14.9-17.5C85.4,84.8,85.3,83.6,84.4,82.9z M70.8,116.1
	c-1.1,0-2.1,0.9-2.1,2c0,3.3-2.8,5.9-6,5.9H10.2c-3.3,0-6.2-2.7-6.2-6V10.2C4,6.9,6.9,4,10.2,4h52.5c3.3,0,6.3,2.9,6.3,6.2v60.3
	c0,1.1,0.9,2,2,2s2-0.9,2-2V36.8c1-0.3,2-1.6,2-3.2V25c0-1.6-1-2.9-2-3.2V10.2C73,4.8,68.1,0,62.7,0H10.2C4.7,0,0,4.8,0,10.2V118
	c0,5.4,4.7,10,10.2,10h52.5c5,0,9.4-3.8,10-8.6c0.1-0.2,0.3-0.4,0.3-0.6V118C73,116.9,71.9,116.1,70.8,116.1z M46.3,10
	c1.1,0,2-0.9,2-2s-0.9-2-2-2H26.5c-1.1,0-2,0.9-2,2s0.9,2,2,2H46.3z M30.9,117.1c0,3,2.5,5.5,5.5,5.5c3,0,5.5-2.5,5.5-5.5
	c0-3-2.5-5.5-5.5-5.5C33.4,111.7,30.9,114.1,30.9,117.1z M38,117.1c0,0.8-0.7,1.5-1.5,1.5s-1.5-0.7-1.5-1.5s0.7-1.5,1.5-1.5
	S38,116.3,38,117.1z M60,72.3c1.2,0,2-1,2-2.2V26.1c0-3.7-3.3-7.1-7.3-7.1H18.9c-4.2,0-7.9,3.6-7.9,7.7v73.5c0,4.2,3.7,7.8,7.9,7.8
	h31.2c1.2,0,2.2-1.3,2.2-2.5s-1-2.5-2.2-2.5H18.9c-1.8,0-2.9-1-2.9-2.8V26.7c0-1.8,1.1-2.7,2.9-2.7h35.7c1.9,0,3.3,1,3.3,2.1v44.1
	C58,71.3,58.8,72.3,60,72.3z"/>
</svg>
