<?xml version="1.0" encoding="utf-8"?>
<!-- Generator: Adobe Illustrator 19.0.0, SVG Export Plug-In . SVG Version: 6.00 Build 0)  -->
<svg version="1.1" id="Layer_1" xmlns="http://www.w3.org/2000/svg" xmlns:xlink="http://www.w3.org/1999/xlink" x="0px" y="0px"
	 viewBox="0 0 24.8 30.3" style="enable-background:new 0 0 24.8 30.3;" xml:space="preserve">
<style type="text/css">
	.st0{fill:#3F59A6;}
</style>
<path class="st0" d="M15.7,25v-3.9c0-0.8,0-1.1-0.5-1.1c-0.3,0-0.5,0.1-0.5,0.4v5.1c0,0.2,0.4,0.5,0.6,0.5c0.4,0,0.5-0.9,0.5-0.9
	H15.7z M20,21.9h1.5v-0.8c0-0.8-0.2-1.2-0.7-1.2S20,20.4,20,21.1V21.9z M6.7,15.9V17h-1v10h-2V17h-2v-1h5.4L6.7,15.9z M11.7,18.7V27
	h-2v-0.9c0,0.7-0.9,1-1.5,1c-0.5,0-0.5-0.2-0.7-0.6c-0.1-0.2,0.2-0.6,0.2-1.2V19h1v5.8c0,0.4,0.1,0.6,0.1,0.6c0,0.2-0.1,0.3,0.2,0.3
	c0.3,0,0.8-0.2,0.8-0.7V19h1.9L11.7,18.7z M17.7,21.2v3.3c0,0.8-0.2,1.3-0.3,1.6c-0.2,0.6-0.5,0.9-1.2,0.9c-0.5,0-1.5-0.3-1.5-0.9
	V27h-2V16h2v3.5c0-0.6,0.9-0.9,1.4-0.9c0.6,0,1.1,0.3,1.3,0.9C17.5,19.9,17.7,20.4,17.7,21.2z M22.7,24.2v0.2c0,0.4,0.1,0.8,0.1,1
	c0,0.3-0.1,0.6-0.3,0.9c-0.4,0.6-1,0.9-1.8,0.9c-0.8,0-1.3-0.3-1.7-0.9c-0.3-0.4-0.4-1.1-0.4-1.9v-2.9c0-0.9,0.1-1.5,0.4-1.9
	c0.4-0.6,1-0.9,1.8-0.9c0.8,0,1.2,0.3,1.6,0.9c0.3,0.4,0.3,1.1,0.3,1.9V23h-3v1.6c0,0.8,0.4,1.2,0.9,1.2c0.4,0,0.7-0.2,0.7-0.6
	c0,0,0.2-0.1,0.2-0.2c0-0.1,0.2-0.2,0.2-0.4V24H23L22.7,24.2z M12.7,5.6v3.5c0,0.8,0,1.2-0.5,1.2s-0.5-0.4-0.5-1.2V5.6
	c0-0.8,0-1.2,0.5-1.2S12.7,4.8,12.7,5.6z M24.8,21.6c0-2.7-0.1-4.6-0.4-5.9c-0.2-0.7-0.5-1.2-1-1.7c-0.5-0.4-1.1-0.7-1.7-0.8
	c-2-0.2-5.1-0.3-9.3-0.3c-4.1,0-7.2,0.1-9.3,0.3c-0.7,0.1-1.2,0.3-1.7,0.8c-0.5,0.4-0.8,1-1,1.7C0.2,17.1,0,19,0,21.6
	c0,2.6,0.2,4.6,0.5,5.9c0.2,0.6,0.5,1.2,1,1.6c0.5,0.5,1.1,0.7,1.7,0.8c2.1,0.2,5.2,0.3,9.3,0.3c4.1,0,7.2-0.1,9.3-0.3
	c0.6-0.1,1.2-0.3,1.7-0.8c0.5-0.5,0.8-1,1-1.6C24.7,26.2,24.8,24.3,24.8,21.6z M7.7,6.8L9.8,0H8.1L7,4.4L5.8,0H4l0.5,1.7
	c0,0,0,0.6,0.3,1.6C5.4,4.9,5.7,6.1,5.7,7v4h2V7L7.7,6.8z M14.7,8.8V5.9c0-0.9-0.3-1.5-0.7-2C13.6,3.3,12.9,3,12.2,3
	c-0.8,0-1.5,0.3-1.9,0.9C10,4.3,9.7,5,9.7,5.9v2.9c0,0.9,0.2,1.5,0.6,2c0.4,0.6,1,0.9,1.8,0.9c0.7,0,1.5-0.3,2-0.9
	C14.3,10.3,14.7,9.7,14.7,8.8z M18.4,11h1.3V3h-1v6.5c-1,0.5-0.8,0.7-1.1,0.7c-0.2,0-0.6-0.1-0.6-0.4c0,0-0.3-0.2-0.3-0.6V3h-1v6.8
	c0,0.6,0,1,0.1,1.2c0.2,0.4,0.6,0.6,1.1,0.6c0.5,0,0.8-0.3,1.8-1v0.9L18.4,11z"/>
</svg>
